<?xml version="1.0" standalone="no"?><!DOCTYPE svg PUBLIC "-//W3C//DTD SVG 1.1//EN" "http://www.w3.org/Graphics/SVG/1.1/DTD/svg11.dtd"><svg t="1679431420521" class="icon" viewBox="0 0 1024 1024" version="1.1" xmlns="http://www.w3.org/2000/svg" p-id="6568" xmlns:xlink="http://www.w3.org/1999/xlink" width="200" height="200"><path d="M512 512m-414 0a414 414 0 1 0 828 0 414 414 0 1 0-828 0Z" fill="#F0C48A" p-id="6569"></path><path d="M36.2 357.4v309.2L218 916.8l294 95.4 294-95.4 181.8-250.2V357.4L806 107.2 512 11.8 218 107.2z" fill="#7BABF1" p-id="6570"></path><path d="M90.6 375v274l161 221.6L512 955.2l260.4-84.6 161-221.6v-274L772.4 153.4 512 68.8 251.6 153.4z" fill="#A4CFF2" p-id="6571"></path><path d="M627.6 156.4H396.4l-186.8 135.8L138.2 512l71.4 219.8 186.8 135.8h231.2l186.8-135.8L885.8 512l-71.4-219.8z" fill="#D3E6F8" p-id="6572"></path><path d="M512 284.2L278.2 454l89.2 275h289.2L745.8 454z" fill="#E8677D" p-id="6573"></path><path d="M512 361l-160.8 116.8 61.4 189h198.8l61.4-189z" fill="#FD919E" p-id="6574"></path><path d="M512 1024c-1.2 0-2.4-0.2-3.6-0.6l-294-95.6c-2.4-0.8-4.4-2.2-5.8-4.2L26.8 673.4c-1.4-2-2.2-4.4-2.2-6.8V357.4c0-2.4 0.8-4.8 2.2-6.8l181.8-250.2c1.4-2 3.6-3.4 5.8-4.2L508.4 0.6c2.4-0.8 4.8-0.8 7.2 0l294 95.6c2.4 0.8 4.4 2.2 5.8 4.2l181.8 250.2c1.4 2 2.2 4.4 2.2 6.8v309.2c0 2.4-0.8 4.8-2.2 6.8l-181.8 250.2c-1.4 2-3.6 3.4-5.8 4.2l-294 95.6c-1.2 0.4-2.4 0.6-3.6 0.6z m-286.8-117.2L512 1000l286.8-93.2 177.2-244V361.2l-177.2-244L512 24 225.2 117.2 48 361.2v301.6l177.2 244z" fill="#4C4372" p-id="6575"></path><path d="M627.6 879.2H396.4c-2.4 0-4.8-0.8-6.8-2.2l-187-135.8c-2-1.4-3.4-3.6-4.2-5.8L127 515.6c-0.8-2.4-0.8-4.8 0-7.2l71.4-219.8c0.8-2.4 2.2-4.4 4.2-5.8l187-135.8c2-1.4 4.4-2.2 6.8-2.2h231c2.4 0 4.8 0.8 6.8 2.2l187 135.8c2 1.4 3.4 3.6 4.2 5.8l71.4 219.8c0.8 2.4 0.8 4.8 0 7.2l-71.4 219.8c-0.8 2.4-2.2 4.4-4.2 5.8l-187 135.8c-1.8 1.6-4.2 2.2-6.6 2.2z m-227.4-23.4h223.4l180.8-131.4L873.6 512l-69-212.6L623.8 168H400.2l-180.8 131.4L150.4 512l69 212.6 180.8 131.2z" fill="#4C4372" p-id="6576"></path><path d="M656.6 740.6H367.4c-5 0-9.6-3.2-11.2-8.2l-89.4-274.8c-1.6-4.8 0.2-10.2 4.2-13.2l233.8-169.8c4.2-3 9.6-3 13.8 0l233.8 169.8c4.2 3 5.8 8.2 4.2 13.2l-89.4 274.8c-1 5-5.6 8.2-10.6 8.2zM376 717.2h272l84-258.6-220-159.8-220 159.8 84 258.6z" fill="#4C4372" p-id="6577"></path><path d="M512 1024c-3.6 0-7-1.6-9.2-4.4L392 881 221 928c-3.4 1-7.2 0.2-10-1.8s-4.6-5.4-4.8-9l-8-177.2-166-62.4c-3.4-1.2-6-4-7-7.4-1.2-3.4-0.6-7.2 1.4-10L124 512l-97.6-148.2c-2-3-2.4-6.6-1.4-10 1.2-3.4 3.6-6 7-7.4L198 284l8-177.2c0.2-3.6 2-6.8 4.8-9 2.8-2 6.6-2.8 10-1.8l171 47.2 110.8-138.6c2.2-2.8 5.6-4.4 9.2-4.4s7 1.6 9.2 4.4l110.8 138.6L803 96c3.4-1 7.2-0.2 10 1.8s4.6 5.4 4.8 9l8 177.2 166 62.4c3.4 1.2 6 4 7 7.4 1.2 3.4 0.6 7-1.4 10L900 512l97.6 148.2c2 3 2.4 6.6 1.4 10-1.2 3.4-3.6 6-7 7.4L826 740l-8 177.2c-0.2 3.6-2 6.8-4.8 9-2.8 2-6.6 2.8-10 1.8l-171-47.2-110.8 138.6c-2.4 3-5.8 4.6-9.4 4.6z m-115.6-168.2c3.6 0 7 1.6 9.2 4.4l106.4 133.2 106.4-133.2c3-3.6 7.8-5.2 12.2-4l164.4 45.2 7.8-170.4c0.2-4.6 3.2-8.8 7.6-10.4l159.6-60-94-142.2c-2.6-4-2.6-9 0-13l93.8-142.4-159.6-60c-4.4-1.6-7.4-5.8-7.6-10.4l-7.8-170.4-164.4 45.2c-4.6 1.2-9.4-0.4-12.2-4L512 30.6l-106.4 133.2c-3 3.6-7.8 5.2-12.2 4l-164.4-45.2-7.8 170.4c-0.2 4.6-3.2 8.8-7.6 10.4l-159.6 60 94 142.2c2.6 4 2.6 9 0 13l-94 142.2 159.6 60c4.4 1.6 7.4 5.8 7.6 10.4l7.8 170.4 164.4-45.2c1-0.4 2-0.6 3-0.6z" fill="#4C4372" p-id="6578"></path><path d="M512 295.8c-3.4 0-6.4-1.4-8.6-3.8l-115.6-127.8c-4.4-4.8-4-12.2 0.8-16.6 4.8-4.4 12.2-4 16.6 0.8l106.8 118 106.8-118c4.4-4.8 11.8-5.2 16.6-0.8 4.8 4.4 5.2 11.8 0.8 16.6L520.6 292c-2.2 2.4-5.2 3.8-8.6 3.8zM885.8 523.8c-1.4 0-3-0.2-4.4-0.8l-140-58c-2.8-1.2-5.2-3.4-6.4-6.4-1.2-2.8-1.2-6.2 0-9l68.6-161.8c2.6-6 9.4-8.8 15.4-6.2 6 2.6 8.8 9.4 6.2 15.4l-64 150.8 129 53.4c6 2.4 8.8 9.4 6.4 15.4-1.8 4.4-6.2 7.2-10.8 7.2zM627.6 879.2c-0.8 0-1.6 0-2.4-0.2-6.4-1.4-10.4-7.6-9-13.8l29-138.6c1.2-5.6 6-9.4 11.6-9.4l158 2.8c6.4 0.2 11.6 5.4 11.6 12-0.2 6.4-5.4 11.6-12 11.6l-148.2-2.6-27.2 129c-1.2 5.4-6 9.2-11.4 9.2zM396.4 879.2c-5.4 0-10.4-3.8-11.4-9.4L358 740.8l-148.2 2.6c-6.6 0-11.8-5-12-11.6-0.2-6.4 5-11.8 11.6-12l158-2.8c5.6 0 10.6 3.8 11.6 9.4l29 138.6c1.4 6.4-2.8 12.6-9 13.8-1 0.4-1.8 0.4-2.6 0.4zM138.2 523.8c-4.6 0-9-2.8-10.8-7.2-2.4-6 0.4-12.8 6.4-15.4l129-53.4-64-150.8c-2.6-6 0.2-12.8 6.2-15.4 6-2.6 12.8 0.2 15.4 6.2l68.6 161.8c1.2 2.8 1.2 6.2 0 9s-3.4 5.2-6.4 6.4l-140 58c-1.4 0.4-3 0.8-4.4 0.8z" fill="#4C4372" p-id="6579"></path><path d="M512 879.2c-3 0-5.8-1-8.2-3.2l-143.4-137.6-193.4-109.6c-2.8-1.6-4.8-4.2-5.6-7.4-0.8-3.2-0.2-6.4 1.6-9.2l103.8-162.2 23.6-226.2c0.4-3.4 2.2-6.6 5-8.4 2.8-2 6.4-2.6 9.8-1.6L512.2 272 730 221.4c3.4-0.8 7 0 9.6 2 2.8 2 4.4 5.2 4.6 8.8l12.8 218.4 99.2 177.2c1.6 2.8 2 6.2 1 9.2-1 3-3 5.6-6 7l-188.2 94.6-142.8 137.4c-2.4 2.2-5.2 3.2-8.2 3.2zM189.4 614.6l184 104.2c0.8 0.4 1.6 1 2.4 1.8l136.4 130.8 136.4-130.8c0.8-0.8 1.8-1.4 2.8-2l178.8-89.8-94.6-168.8c-0.8-1.6-1.4-3.2-1.4-5L722 247.4l-207.2 48c-2 0.4-4 0.4-5.8-0.2L312.2 240l-22.4 215.2c-0.2 1.8-0.8 3.6-1.8 5.2l-98.6 154.2z m88.8-160.6z" fill="#4C4372" p-id="6580"></path><path d="M512 536.8c-1.2 0-2.2-0.2-3.4-0.6l-233.8-71c-6.2-1.8-9.6-8.4-7.8-14.6 1.8-6.2 8.4-9.6 14.6-7.8l218.8 66.4V284.2c0-6.4 5.2-11.8 11.8-11.8 6.4 0 11.8 5.2 11.8 11.8v240.8c0 3.8-1.8 7.2-4.8 9.4-2.2 1.6-4.8 2.4-7.2 2.4z" fill="#4C4372" p-id="6581"></path><path d="M656.6 740.6c-3.6 0-7.2-1.8-9.6-5L512 545.4l-135 190.4c-3.8 5.2-11 6.6-16.4 2.8-5.2-3.8-6.6-11-2.8-16.4l144.6-203.8c2.2-3.2 5.8-5 9.6-5s7.4 1.8 9.6 5L666 722.2c3.8 5.2 2.4 12.6-2.8 16.4-2 1.4-4.4 2-6.6 2z" fill="#4C4372" p-id="6582"></path><path d="M512 536.8c-5 0-9.6-3.2-11.2-8.4-1.8-6.2 1.6-12.8 7.8-14.6l233.8-71c6.2-1.8 12.8 1.6 14.6 7.8 1.8 6.2-1.6 12.8-7.8 14.6l-233.8 71c-1.2 0.4-2.2 0.6-3.4 0.6z" fill="#4C4372" p-id="6583"></path></svg>